{
  "accessors": [
    {
      "bufferView": 0,
      "componentType": 5125,
      "count": 181248,
      "type": "SCALAR"
    },
    {
      "bufferView": 1,
      "componentType": 5126,
      "count": 37646,
      "max": [
        545.716430664062,
        545.716491699219,
        -130.575286865234
      ],
      "min": [
        -545.716430664062,
        -545.716491699219,
        -741.965942382812
      ],
      "type": "VEC3"
    },
    {
      "bufferView": 2,
      "componentType": 5126,
      "count": 37646,
      "type": "VEC3"
    },
    {
      "bufferView": 3,
      "componentType": 5126,
      "count": 37646,
      "type": "VEC4"
    },
    {
      "bufferView": 4,
      "componentType": 5126,
      "count": 37646,
      "type": "VEC2"
    }
  ],
  "asset": {
    "generator": "Adobe Substance 3D Painter 11.0.0",
    "version": "2.0"
  },
  "bufferViews": [
    {
      "buffer": 0,
      "byteLength": 724992,
      "target": 34963
    },
    {
      "buffer": 0,
      "byteLength": 451752,
      "byteOffset": 724992,
      "target": 34962
    },
    {
      "buffer": 0,
      "byteLength": 451752,
      "byteOffset": 1176744,
      "target": 34962
    },
    {
      "buffer": 0,
      "byteLength": 602336,
      "byteOffset": 1628496,
      "target": 34962
    },
    {
      "buffer": 0,
      "byteLength": 301168,
      "byteOffset": 2230832,
      "target": 34962
    }
  ],
  "buffers": [
    {
      "byteLength": 2532000,
      "uri": "CoffeeTable.bin"
    }
  ],
  "images": [
    {
      "uri": "Material.014_baseColor.png"
    },
    {
      "uri": "Material.014_occlusionRoughnessMetallic.png"
    },
    {
      "uri": "Material.014_normal.png"
    },
    {
      "uri": "Material.014_emissive.png"
    }
  ],
  "materials": [
    {
      "alphaMode": "BLEND",
      "emissiveFactor": [
        1.0,
        1.0,
        1.0
      ],
      "emissiveTexture": {
        "index": 3
      },
      "name": "Material.014",
      "normalTexture": {
        "index": 2
      },
      "occlusionTexture": {
        "index": 1
      },
      "pbrMetallicRoughness": {
        "baseColorTexture": {
          "index": 0
        },
        "metallicRoughnessTexture": {
          "index": 1
        }
      }
    }
  ],
  "meshes": [
    {
      "name": "Cylinder.036",
      "primitives": [
        {
          "attributes": {
            "NORMAL": 2,
            "POSITION": 1,
            "TANGENT": 3,
            "TEXCOORD_0": 4
          },
          "indices": 0,
          "material": 0,
          "mode": 4
        }
      ]
    }
  ],
  "nodes": [
    {
      "children": [
        1
      ],
      "name": "RootNode",
      "scale": [
        0.00999999977648258,
        0.00999999977648258,
        0.00999999977648258
      ]
    },
    {
      "children": [
        2
      ],
      "name": "Cylinder.036",
      "rotation": [
        -0.70710688829422,
        0.0,
        0.0,
        0.707106649875641
      ],
      "scale": [
        1.0,
        0.99999988079071,
        0.99999988079071
      ],
      "translation": [
        0.0,
        281.557312011719,
        3.203364440027e-12
      ]
    },
    {
      "mesh": 0,
      "name": "Cylinder.036"
    }
  ],
  "samplers": [
    {
      "magFilter": 9729,
      "minFilter": 9985,
      "wrapS": 10497,
      "wrapT": 10497
    }
  ],
  "scene": 0,
  "scenes": [
    {
      "name": "Scene",
      "nodes": [
        0
      ]
    }
  ],
  "textures": [
    {
      "sampler": 0,
      "source": 0
    },
    {
      "sampler": 0,
      "source": 1
    },
    {
      "sampler": 0,
      "source": 2
    },
    {
      "sampler": 0,
      "source": 3
    }
  ]
}